<svg width="39" height="39" viewBox="0 0 39 39" fill="none" xmlns="http://www.w3.org/2000/svg">
<g clip-path="url(#clip0_8_413)">
<g clip-path="url(#clip1_8_413)">
<path d="M38.4004 17.2034L35.4901 17.8856C35.6345 19.3517 34.9752 20.7003 34.6286 21.1913C34.3408 21.2152 33.6625 20.9353 33.2272 20.5081C32.2044 19.5041 33.3149 17.2203 33.533 16.7731C33.539 16.7611 33.545 16.7482 33.5509 16.7362C31.1078 17.8856 30.1546 17.0749 29.311 16.2333C28.4694 15.3907 29.0481 14.054 29.3827 13.3598C29.3827 13.3598 28.5033 13.3608 27.9465 13.2871C25.33 12.9415 23.5343 11.7573 22.119 9.84399C21.2983 10.6637 19.8222 10.5004 19.3242 10.0083C19.6579 10.9924 19.5503 11.7035 19.4935 11.8121C19.6927 12.0481 19.7366 12.1198 19.9716 12.3529C22.6727 14.9405 25.1677 15.299 26.078 15.1556C25.8748 15.5032 25.4446 16.554 25.6826 17.4185C26.0282 18.6774 27.2115 19.3786 28.3778 19.3945C29.0481 19.4045 29.6596 19.0698 29.9714 18.9005C30.2004 18.775 30.2642 18.7402 30.066 19.0001C30.0102 19.0728 29.9524 19.1445 29.8947 19.2153C29.4953 19.7073 29.1676 20.1117 29.4196 21.3706C30.1377 23.0668 31.6107 23.3466 32.2581 23.2749C32.6884 23.2749 33.9742 22.8935 35.6704 21.3706C37.3656 19.8467 38.1972 17.9573 38.4004 17.2034Z" fill="#E7A127"/>
<path d="M16.7236 0.880127L17.4059 3.79041C18.872 3.64699 20.2205 4.30534 20.7116 4.65294C20.7355 4.93978 20.4556 5.61905 20.0293 6.0533C19.0244 7.07718 16.7406 5.96565 16.2934 5.74853L16.2565 5.7306C17.4059 8.17376 16.5951 9.12692 15.7535 9.96953C14.9109 10.8121 13.5743 10.2335 12.8801 9.89782C12.8801 9.89782 12.8811 10.7773 12.8074 11.335C12.4618 13.9505 11.2786 15.7463 9.36426 17.1616C10.185 17.9823 10.0206 19.4583 9.5286 19.9563C10.5126 19.6227 11.2238 19.7302 11.3333 19.787C11.5684 19.5888 11.6401 19.544 11.8742 19.3099C14.4607 16.6088 14.8193 14.1128 14.6759 13.2025C15.0235 13.4067 16.0742 13.836 16.9398 13.5979C18.1977 13.2523 18.8989 12.0691 18.9148 10.9038C18.9248 10.2335 18.5901 9.62093 18.4208 9.31018C18.2953 9.08111 18.2614 9.01637 18.5204 9.21557C18.5951 9.27234 18.6658 9.3301 18.7355 9.38688C19.2275 9.78527 19.6319 10.1139 20.8908 9.86196C22.587 9.14385 22.8669 7.67079 22.7952 7.02339C22.7952 6.59312 22.4147 5.30631 20.8908 3.61113C19.367 1.91496 17.4796 1.0843 16.7236 0.880127Z" fill="#E7A127"/>
<path d="M0.400391 22.3985L3.31067 21.7162C3.16725 20.2501 3.8256 18.9016 4.1732 18.4105C4.46104 18.3866 5.13931 18.6665 5.57456 19.0938C6.59744 20.0977 5.48691 22.3815 5.26879 22.8287L5.25086 22.8666C7.69402 21.7172 8.64719 22.5279 9.49079 23.3696C10.3324 24.2122 9.75373 25.5488 9.41808 26.244C9.41808 26.244 10.2985 26.242 10.8553 26.3157C13.4708 26.6613 15.2675 27.8445 16.6828 29.7588C17.5025 28.9391 18.9796 29.1025 19.4766 29.5945C19.1429 28.6105 19.2505 27.8993 19.3073 27.7908C19.1101 27.5547 19.0642 27.483 18.8312 27.2489C16.1291 24.6624 13.6341 24.3038 12.7238 24.4472C12.927 24.0996 13.3562 23.0489 13.1192 22.1843C12.7726 20.9254 11.5903 20.2242 10.424 20.2083C9.75373 20.1983 9.1412 20.533 8.83045 20.7023C8.60137 20.8278 8.53763 20.8627 8.73583 20.6027C8.7936 20.528 8.85136 20.4573 8.90714 20.3876C9.30653 19.8955 9.63421 19.4912 9.38223 18.2322C8.66412 16.5361 7.19105 16.2562 6.54366 16.3279C6.11339 16.3279 4.82757 16.7094 3.13139 18.2322C1.43622 19.7561 0.604569 21.6455 0.401387 22.3995L0.400391 22.3985Z" fill="#E7A127"/>
<path d="M22.4175 38.8801L21.7353 35.9699C20.2692 36.1133 18.9206 35.4549 18.4296 35.1073C18.4057 34.8205 18.6856 34.1412 19.1118 33.706C20.1168 32.6831 22.4006 33.7946 22.8478 34.0117L22.8847 34.0297C21.7353 31.5865 22.545 30.6334 23.3876 29.7907C24.2302 28.9481 25.5669 29.5268 26.2611 29.8625C26.2611 29.8625 26.2591 28.982 26.3328 28.4252C26.6794 25.8098 27.8626 24.014 29.7769 22.5987C28.9562 21.778 29.1205 20.3019 29.6126 19.804C28.6285 20.1376 27.9174 20.03 27.8088 19.9733C27.5728 20.1715 27.5001 20.2163 27.267 20.4504C24.6804 23.1515 24.3219 25.6474 24.4653 26.5578C24.1177 26.3536 23.0669 25.9243 22.2014 26.1624C20.9435 26.508 20.2423 27.6912 20.2264 28.8565C20.2164 29.5268 20.551 30.1393 20.7204 30.4501C20.8449 30.6792 20.8797 30.7429 20.6208 30.5447C20.5481 30.4889 20.4763 30.4312 20.4056 30.3734C19.9136 29.975 19.5092 29.6463 18.2503 29.8983C16.5541 30.6174 16.2743 32.0895 16.346 32.7369C16.346 33.1681 16.7264 34.454 18.2503 36.1491C19.7742 37.8453 21.6626 38.676 22.4175 38.8801Z" fill="#E7A127"/>
<path d="M20.7797 15.8259C21.0346 15.7891 21.2627 15.9255 21.4629 16.2343C21.8812 16.8687 21.8812 17.7124 21.4629 18.7641C21.6083 18.8368 21.7169 18.9095 21.7896 18.9832C21.8653 19.031 21.949 19.0669 22.0356 19.0908C22.2537 19.1814 22.2996 19.3448 22.1721 19.5808L21.8992 20.0987C21.8085 20.2611 21.69 20.3159 21.5446 20.2611C21.3155 20.1854 21.0954 20.0858 20.8892 19.9623C19.7438 21.4493 18.453 22.5469 17.0158 23.255C16.725 23.4184 16.5158 23.4004 16.3884 23.2003C16.2609 22.9463 16.3704 22.7292 16.716 22.5479C18.1891 21.6943 19.3624 20.7053 20.2349 19.5808C19.7618 19.3269 19.4162 19.1008 19.199 18.9006C18.8166 18.538 18.716 18.1386 18.8983 17.7034C19.3534 16.5779 19.9799 15.9524 20.7807 15.825L20.7797 15.8259ZM20.5078 17.4036C20.1442 17.0769 19.8534 17.1048 19.6343 17.4853C19.5626 17.5759 19.5984 17.6944 19.7438 17.8388C19.9072 18.0022 20.2528 18.2113 20.7797 18.4653C20.8534 17.9574 20.7627 17.6038 20.5078 17.4036Z" fill="#E7A127"/>
</g>
</g>
<defs>
<clipPath id="clip0_8_413">
<rect width="38" height="38" fill="white" transform="translate(0.400391 0.880127)"/>
</clipPath>
<clipPath id="clip1_8_413">
<rect width="38" height="38" fill="white" transform="translate(0.400391 0.880127)"/>
</clipPath>
</defs>
</svg>
