<svg width="135" height="51" viewBox="0 0 135 51" fill="none" xmlns="http://www.w3.org/2000/svg">
<g clip-path="url(#clip0_8_15)">
<path d="M49.0894 38.9418L49.1015 39.0111C49.3053 40.1155 49.9318 41.7038 51.1747 42.9357C52.4478 44.1987 54.3393 45.0521 56.9427 44.6646C61.7459 43.9498 64.6705 42.4207 65.6103 41.6496L65.6384 41.6255L65.6645 41.5994C67.7397 39.5151 69.9154 37.5191 71.8652 36.4067C72.8391 35.8505 73.6915 35.5563 74.4003 35.5332C74.9836 35.5141 75.4947 35.6778 75.9495 36.1015L76.1402 36.3003L80.9273 42.2008L80.9514 42.2299L80.9785 42.257C81.4966 42.7771 82.4112 43.4056 83.5287 43.6265C84.6863 43.8574 86.0276 43.6385 87.2645 42.499C88.9473 40.9398 90.5657 39.3133 92.1179 37.6245L92.1219 37.6195C92.6671 37.0071 93.6309 36.2902 94.7173 36.0874C95.7323 35.8967 96.9562 36.1326 98.1901 37.6035C99.9009 39.6436 100.748 41.0803 101.411 42.1074C102.067 43.1225 102.641 43.9146 103.826 44.2108C104.297 44.3293 104.846 44.4347 105.505 44.3674C106.164 44.2991 106.88 44.0652 107.714 43.5853C108.31 43.2439 108.978 42.7691 109.746 42.1245C109.136 42.9608 108.496 43.7761 107.83 44.5682C106.644 45.9688 105.423 47.1947 104.255 48.0521C103.069 48.9246 102.035 49.3432 101.199 49.3101C99.9381 49.2599 99.1961 48.9728 98.6981 48.6053C98.1901 48.2318 97.8517 47.7158 97.4963 47.029C96.7975 45.6756 96.0978 43.7239 93.6711 42.3825L93.648 42.3705L93.6259 42.3604C92.0115 41.6034 90.4332 42.0181 89.1721 42.7188C87.9202 43.4166 86.872 44.4528 86.2063 45.1586L86.1622 45.2048L86.126 45.258C85.5507 46.1244 84.377 47.2067 82.9574 47.9577C81.5337 48.7107 79.9956 49.0621 78.6623 48.6806C77.7727 48.4256 77.0137 47.7449 76.3671 46.8694C75.8842 46.2168 75.4977 45.506 75.1854 44.8805L74.8963 44.2881L74.8822 44.259C74.6463 43.77 74.334 43.248 73.8682 42.8213C72.6915 41.742 70.3863 40.5 67.6675 41.6948L67.6393 41.7068L67.6122 41.7219C65.2167 43.017 63.4095 45.1606 62.7709 46.1164C61.8533 47.4055 58.017 50.3954 50.5392 50.4055C48.8475 50.2549 47.8806 49.1625 47.3394 47.6726C46.7872 46.1495 46.7411 44.3323 46.8776 43.1265L46.8826 43.0843V13.8538L49.0894 10.2033V38.9418ZM123.348 40.754C123.349 43.7429 126.083 45.9517 128.962 45.3624L129.242 45.2971L130.369 44.9939C131.332 44.8443 132.423 44.3383 133.829 43.2449C134.013 43.1014 134.204 42.9468 134.4 42.7821C133.124 44.523 131.714 46.2218 130.304 47.5391L130.274 47.5672L130.247 47.5993C129.549 48.4035 128.681 49.042 127.705 49.4688L127.688 49.4768L127.671 49.4848C127.179 49.7328 126.725 49.8844 126.314 49.9426L126.28 49.9467L126.247 49.9547C125.713 50.0782 125.17 50.1545 124.622 50.1836C122.948 50.023 121.988 48.9346 121.451 47.4527C120.899 45.9296 120.851 44.1134 120.989 42.9076L120.994 42.8654V19.5646L123.348 15.8166V40.754ZM40.6709 41.4568C40.2974 42.7018 39.6719 43.8564 38.8325 44.8483C37.4922 46.4246 35.4089 47.8061 32.2212 48.4467C27.3809 49.4196 20.1792 49.785 13.6281 49.8854C8.09405 49.9697 3.06601 49.8623 0.400391 49.785L3.32203 44.259C8.56292 44.5732 16.5176 44.771 23.9733 44.3694C27.8177 44.1636 31.5465 43.7971 34.7091 43.2038C37.0153 42.7701 39.0765 42.2028 40.6709 41.4568ZM6.63524 33.6577L3.62725 38.6677L2.19554 16.0345L5.15233 11.0557L6.63524 33.6577ZM118.629 9.86493C118.765 10.123 118.962 10.3619 119.184 10.5647C119.614 10.9573 120.261 11.3137 120.977 11.3077C121.561 11.2946 122.145 11.2424 122.722 11.1511L122.683 11.1902L122.304 11.2605C121.842 11.3488 121.107 11.5135 119.915 11.902C119.791 11.9422 119.672 11.9783 119.559 12.0145L119.213 10.9703H119.21L119.19 10.9713C119.173 10.9713 119.156 10.9713 119.141 10.9693L119.092 10.9292L118.976 10.884L118.88 10.8438C118.694 10.7555 118.539 10.6149 118.435 10.4382C118.385 10.3559 118.36 10.2475 118.394 10.0828C118.425 9.94525 118.477 9.81272 118.549 9.69123C118.574 9.75348 118.6 9.81171 118.629 9.86392V9.86493ZM120.227 7.85692C120.804 7.44428 121.11 7.46938 121.275 7.56777C121.523 7.71837 121.58 7.83082 121.593 7.86696C121.605 7.89909 121.615 7.95431 121.576 8.06274C121.519 8.19929 121.44 8.32479 121.341 8.43423L121.296 8.37097L121.244 8.30471C121.146 8.19326 121.024 8.10491 120.889 8.04467C120.782 7.99748 120.672 7.96134 120.558 7.93825C120.436 7.91214 120.311 7.89508 120.186 7.88805L120.227 7.85692ZM112.103 3.56281C112.155 3.63008 112.208 3.69032 112.26 3.74353C112.616 4.10096 113.262 4.47645 114.076 4.87303L115.006 5.32584L115.012 5.28066L115.127 5.33889C115.316 5.43427 115.407 5.50455 115.439 5.53768L115.505 5.60294L115.584 5.65113C115.657 5.69431 115.732 5.73447 115.808 5.77161L115.58 6.20936C115.364 6.11699 115.154 6.01157 114.951 5.8931L114.672 5.73246L114.692 5.70635L113.918 5.28568C113.207 4.90014 112.737 4.58187 112.466 4.33188C112.246 4.12104 112.153 3.94232 112.118 3.80076C112.099 3.72245 112.092 3.64213 112.103 3.56281ZM114.516 0.795785C114.533 0.793777 114.546 0.793777 114.577 0.812853C114.625 0.840965 114.715 0.918273 114.831 1.09899L114.834 1.10301C115.153 1.59196 115.287 2.24054 115.139 3.10499C115.049 2.66825 114.849 2.27367 114.487 1.97147C114.187 1.69939 113.79 1.44136 113.323 1.42329C113.703 1.05883 114.104 0.864057 114.516 0.795785Z" fill="black" stroke="black" stroke-width="1.506" stroke-miterlimit="10"/>
</g>
<defs>
<clipPath id="clip0_8_15">
<rect width="134" height="50" fill="white" transform="translate(0.400391 0.600098)"/>
</clipPath>
</defs>
</svg>
