<svg width="175" height="38" viewBox="0 0 175 38" fill="none" xmlns="http://www.w3.org/2000/svg">
<g clip-path="url(#clip0_8_499)">
<g clip-path="url(#clip1_8_499)">
<path d="M57.9004 16.3232L54.9901 17.0055C55.1345 18.4716 54.4752 19.8202 54.1286 20.3112C53.8408 20.3351 53.1625 20.0552 52.7272 19.6279C51.7044 18.624 52.8149 16.3402 53.033 15.893C53.039 15.881 53.045 15.8681 53.0509 15.8561C50.6078 17.0055 49.6546 16.1948 48.811 15.3531C47.9694 14.5105 48.5481 13.1739 48.8827 12.4797C48.8827 12.4797 48.0033 12.4807 47.4465 12.407C44.83 12.0614 43.0343 10.8772 41.619 8.96387C40.7983 9.78357 39.3222 9.62022 38.8242 9.12821C39.1579 10.1122 39.0503 10.8234 38.9935 10.9319C39.1927 11.168 39.2366 11.2397 39.4716 11.4728C42.1727 14.0603 44.6677 14.4189 45.578 14.2755C45.3748 14.6231 44.9446 15.6739 45.1826 16.5384C45.5282 17.7973 46.7115 18.4985 47.8778 18.5144C48.5481 18.5244 49.1596 18.1897 49.4714 18.0204C49.7004 17.8949 49.7642 17.86 49.566 18.12C49.5102 18.1927 49.4524 18.2644 49.3947 18.3351C48.9953 18.8272 48.6676 19.2315 48.9196 20.4905C49.6377 22.1866 51.1107 22.4665 51.7581 22.3948C52.1884 22.3948 53.4742 22.0133 55.1704 20.4905C56.8656 18.9666 57.6972 17.0772 57.9004 16.3232Z" fill="#E7A127"/>
<path d="M36.2236 0L36.9059 2.91028C38.372 2.76686 39.7205 3.42521 40.2116 3.77281C40.2355 4.05965 39.9556 4.73892 39.5293 5.17317C38.5244 6.19705 36.2406 5.08552 35.7934 4.8684L35.7565 4.85047C36.9059 7.29363 36.0951 8.2468 35.2535 9.0894C34.4109 9.93201 33.0743 9.35334 32.3801 9.01769C32.3801 9.01769 32.3811 9.89715 32.3074 10.4549C31.9618 13.0704 30.7786 14.8661 28.8643 16.2814C29.685 17.1021 29.5206 18.5782 29.0286 19.0762C30.0126 18.7425 30.7238 18.8501 30.8333 18.9069C31.0684 18.7087 31.1401 18.6639 31.3742 18.4298C33.9607 15.7287 34.3193 13.2327 34.1759 12.3224C34.5235 12.5266 35.5742 12.9558 36.4398 12.7178C37.6977 12.3722 38.3989 11.1889 38.4148 10.0236C38.4248 9.35334 38.0901 8.74081 37.9208 8.43006C37.7953 8.20098 37.7614 8.13624 38.0204 8.33544C38.0951 8.39221 38.1658 8.44998 38.2355 8.50675C38.7275 8.90514 39.1319 9.23382 40.3908 8.98184C42.087 8.26373 42.3669 6.79066 42.2952 6.14327C42.2952 5.713 41.9147 4.42618 40.3908 2.731C38.867 1.03483 36.9796 0.204178 36.2236 0Z" fill="#E7A127"/>
<path d="M19.9004 21.5186L22.8107 20.8363C22.6673 19.3702 23.3256 18.0217 23.6732 17.5306C23.961 17.5067 24.6393 17.7866 25.0746 18.2139C26.0974 19.2179 24.9869 21.5017 24.7688 21.9489L24.7509 21.9867C27.194 20.8373 28.1472 21.6481 28.9908 22.4897C29.8324 23.3323 29.2537 24.6689 28.9181 25.3641C28.9181 25.3641 29.7985 25.3621 30.3553 25.4358C32.9708 25.7814 34.7675 26.9647 36.1828 28.879C37.0025 28.0593 38.4796 28.2226 38.9766 28.7146C38.6429 27.7306 38.7505 27.0194 38.8073 26.9109C38.6101 26.6748 38.5642 26.6031 38.3312 26.3691C35.6291 23.7825 33.1341 23.4239 32.2238 23.5673C32.427 23.2197 32.8562 22.169 32.6192 21.3045C32.2726 20.0455 31.0903 19.3443 29.924 19.3284C29.2537 19.3184 28.6412 19.6531 28.3304 19.8224C28.1014 19.9479 28.0376 19.9828 28.2358 19.7228C28.2936 19.6481 28.3514 19.5774 28.4071 19.5077C28.8065 19.0157 29.1342 18.6113 28.8822 17.3524C28.1641 15.6562 26.691 15.3763 26.0437 15.448C25.6134 15.448 24.3276 15.8295 22.6314 17.3524C20.9362 18.8762 20.1046 20.7656 19.9014 21.5196L19.9004 21.5186Z" fill="#E7A127"/>
<path d="M41.9175 38L41.2353 35.0897C39.7692 35.2332 38.4206 34.5748 37.9296 34.2272C37.9057 33.9404 38.1856 33.2611 38.6118 32.8259C39.6168 31.803 41.9006 32.9145 42.3478 33.1316L42.3847 33.1496C41.2353 30.7064 42.045 29.7532 42.8876 28.9106C43.7302 28.068 45.0669 28.6467 45.7611 28.9823C45.7611 28.9823 45.7591 28.1019 45.8328 27.5451C46.1794 24.9296 47.3626 23.1339 49.2769 21.7186C48.4562 20.8979 48.6205 19.4218 49.1126 18.9238C48.1285 19.2575 47.4174 19.1499 47.3088 19.0931C47.0728 19.2913 47.0001 19.3362 46.767 19.5702C44.1804 22.2713 43.8219 24.7673 43.9653 25.6776C43.6177 25.4735 42.5669 25.0442 41.7014 25.2822C40.4435 25.6278 39.7423 26.8111 39.7264 27.9764C39.7164 28.6467 40.051 29.2592 40.2204 29.57C40.3449 29.799 40.3797 29.8628 40.1208 29.6646C40.0481 29.6088 39.9763 29.551 39.9056 29.4933C39.4136 29.0949 39.0092 28.7662 37.7503 29.0182C36.0541 29.7373 35.7743 31.2094 35.846 31.8568C35.846 32.288 36.2264 33.5738 37.7503 35.269C39.2742 36.9652 41.1626 37.7958 41.9175 38Z" fill="#E7A127"/>
<path d="M40.2797 14.9458C40.5346 14.909 40.7627 15.0454 40.9629 15.3542C41.3812 15.9886 41.3812 16.8322 40.9629 17.884C41.1083 17.9567 41.2169 18.0294 41.2896 18.1031C41.3653 18.1509 41.449 18.1868 41.5356 18.2107C41.7537 18.3013 41.7996 18.4647 41.6721 18.7007L41.3992 19.2186C41.3085 19.381 41.19 19.4357 41.0446 19.381C40.8155 19.3053 40.5954 19.2057 40.3892 19.0822C39.2438 20.5692 37.953 21.6668 36.5158 22.3749C36.225 22.5383 36.0158 22.5203 35.8884 22.3201C35.7609 22.0662 35.8704 21.849 36.216 21.6678C37.6891 20.8142 38.8624 19.8252 39.7349 18.7007C39.2618 18.4467 38.9162 18.2206 38.699 18.0204C38.3166 17.6579 38.216 17.2585 38.3983 16.8233C38.8534 15.6978 39.4799 15.0723 40.2807 14.9448L40.2797 14.9458ZM40.0078 16.5235C39.6442 16.1968 39.3534 16.2247 39.1343 16.6051C39.0626 16.6958 39.0984 16.8143 39.2438 16.9587C39.4072 17.1221 39.7528 17.3312 40.2797 17.5852C40.3534 17.0772 40.2627 16.7237 40.0078 16.5235Z" fill="#E7A127"/>
</g>
</g>
<g clip-path="url(#clip2_8_499)">
<g clip-path="url(#clip3_8_499)">
<path d="M77.5973 28.4438C72.2416 28.4438 67.9004 24.0916 67.9004 18.7219C67.9004 13.3522 72.2416 9 77.5973 9C82.953 9 87.2942 13.3522 87.2942 18.7219C87.2942 24.0916 82.953 28.4438 77.5973 28.4438ZM77.5973 9.17609C73.011 9.17609 70.1755 13.7034 70.1755 18.7219C70.1755 23.7405 73.011 28.2677 77.5973 28.2677C82.2186 28.2677 85.0541 23.7405 85.0541 18.7219C85.0541 13.7034 82.2186 9.17609 77.5973 9.17609ZM94.6809 28.2677C97.9006 28.2677 99.6865 26.829 99.6865 24.1267C99.6865 19.3883 88.4838 20.6519 88.4838 13.8084C88.4838 10.4387 91.7394 9 95.0301 9C96.5359 9 98.9521 9.66734 100.142 10.895L100.002 13.4923C99.6164 11.3512 97.6564 9.31616 95.0301 9.17609C92.2297 9.17609 90.4798 10.6849 90.4798 13.1761C90.4798 19.2832 101.681 17.0721 101.681 23.3192C101.681 27.0751 98.3208 28.4438 94.6809 28.4438C91.7044 28.4438 89.7094 27.0401 88.3437 25.6714L88.4838 21.9856C88.869 24.1617 90.3397 28.0576 94.6809 28.2687V28.2677ZM119.517 28.4438H115.772C116.192 28.0576 115.982 27.3203 115.807 26.8991L113.706 21.1081H105.094L103.168 26.3378C102.854 27.1802 102.608 28.1287 103.799 28.4438H100.788C102.084 28.0937 102.609 27.3913 102.993 26.3378L109.33 9.21111L109.4 9.001H111.641L118.222 26.9001C118.502 27.6004 118.853 28.1977 119.517 28.4438ZM105.163 20.933H113.635L109.4 9.45723L105.163 20.933ZM120.992 28.4438C121.237 28.1977 121.447 27.6364 121.447 26.8991V10.5448C121.447 9.80741 121.237 9.24612 120.992 9H126.803C129.535 9 133.21 10.5088 133.21 14.1946C133.21 17.1771 130.619 18.897 127.819 19.4593L133.386 26.5829C133.806 27.1102 134.786 28.2677 135.486 28.4438H131.284C131.67 28.0226 131.039 27.2502 130.794 26.9341L125.088 19.6344H123.723V26.8991C123.723 27.6364 123.933 28.1977 124.213 28.4438H120.992ZM124.668 9.17609C123.863 9.17609 123.723 9.87744 123.723 10.5448V19.4593H125.894C129.184 19.4593 130.899 17.3532 130.899 14.1946C130.899 11.036 128.764 9.17609 126.803 9.17609H124.668ZM154.9 28.4438H151.154C151.575 28.0576 151.365 27.3203 151.19 26.8991L149.088 21.1081H140.477L138.552 26.3378C138.237 27.1802 137.992 28.1287 139.182 28.4438H136.171C137.467 28.0937 137.992 27.3913 138.377 26.3378L144.713 9.21111L144.783 9.001H147.024L153.605 26.9001C153.885 27.6004 154.235 28.1977 154.9 28.4438ZM140.546 20.933H149.018L144.782 9.45723L140.546 20.933Z" fill="black"/>
</g>
</g>
<defs>
<clipPath id="clip0_8_499">
<rect width="38" height="38" fill="white" transform="translate(19.9004)"/>
</clipPath>
<clipPath id="clip1_8_499">
<rect width="38" height="38" fill="white" transform="translate(19.9004)"/>
</clipPath>
<clipPath id="clip2_8_499">
<rect width="87" height="20" fill="white" transform="translate(67.9004 9)"/>
</clipPath>
<clipPath id="clip3_8_499">
<rect width="87" height="19.4438" fill="white" transform="translate(67.9004 9)"/>
</clipPath>
</defs>
</svg>
